<?xml version="1.0" encoding="UTF-8" standalone="no"?>
<!-- Created with Inkscape (http://www.inkscape.org/) -->

<svg
   width="1024"
   height="1024"
   viewBox="0 0 270.93333 270.93333"
   version="1.1"
   id="svg1"
   xml:space="preserve"
   inkscape:version="1.3.2 (091e20e, 2023-11-25)"
   sodipodi:docname="DialogR.svg"
   xmlns:inkscape="http://www.inkscape.org/namespaces/inkscape"
   xmlns:sodipodi="http://sodipodi.sourceforge.net/DTD/sodipodi-0.dtd"
   xmlns="http://www.w3.org/2000/svg"
   xmlns:svg="http://www.w3.org/2000/svg"><sodipodi:namedview
     id="namedview1"
     pagecolor="#ffffff"
     bordercolor="#000000"
     borderopacity="0.25"
     inkscape:showpageshadow="2"
     inkscape:pageopacity="0.0"
     inkscape:pagecheckerboard="0"
     inkscape:deskcolor="#d1d1d1"
     inkscape:document-units="mm"
     inkscape:zoom="0.29734127"
     inkscape:cx="396.85039"
     inkscape:cy="559.96263"
     inkscape:window-width="2464"
     inkscape:window-height="1212"
     inkscape:window-x="0"
     inkscape:window-y="30"
     inkscape:window-maximized="0"
     inkscape:current-layer="layer1" /><defs
     id="defs1"><marker
       inkscape:stockid="Arrow1Lend"
       orient="auto"
       refY="0"
       refX="0"
       id="marker4740"
       style="overflow:visible"
       inkscape:isstock="true"><path
         id="path4738"
         d="M 0,0 5,-5 -12.5,0 5,5 Z"
         style="fill:#000000;fill-opacity:1;fill-rule:evenodd;stroke:#000000;stroke-width:1pt;stroke-opacity:1"
         transform="matrix(-0.8,0,0,-0.8,-10,0)"
         inkscape:connector-curvature="0" /></marker><marker
       inkscape:isstock="true"
       style="overflow:visible"
       id="marker4598"
       refX="0"
       refY="0"
       orient="auto"
       inkscape:stockid="Arrow1Lstart"><path
         transform="matrix(0.8,0,0,0.8,10,0)"
         style="fill:#000000;fill-opacity:1;fill-rule:evenodd;stroke:#000000;stroke-width:1pt;stroke-opacity:1"
         d="M 0,0 5,-5 -12.5,0 5,5 Z"
         id="path4596"
         inkscape:connector-curvature="0" /></marker><marker
       inkscape:isstock="true"
       style="overflow:visible"
       id="marker3996"
       refX="0"
       refY="0"
       orient="auto"
       inkscape:stockid="Arrow1Lend"><path
         transform="matrix(-0.8,0,0,-0.8,-10,0)"
         style="fill:#000000;fill-opacity:1;fill-rule:evenodd;stroke:#000000;stroke-width:1pt;stroke-opacity:1"
         d="M 0,0 5,-5 -12.5,0 5,5 Z"
         id="path3994"
         inkscape:connector-curvature="0" /></marker><marker
       inkscape:stockid="Arrow1Lend"
       orient="auto"
       refY="0"
       refX="0"
       id="marker3194"
       style="overflow:visible"
       inkscape:isstock="true"><path
         id="path3192"
         d="M 0,0 5,-5 -12.5,0 5,5 Z"
         style="fill:#000000;fill-opacity:1;fill-rule:evenodd;stroke:#000000;stroke-width:1pt;stroke-opacity:1"
         transform="matrix(-0.8,0,0,-0.8,-10,0)"
         inkscape:connector-curvature="0" /></marker><marker
       inkscape:stockid="Arrow1Lstart"
       orient="auto"
       refY="0"
       refX="0"
       id="marker3066"
       style="overflow:visible"
       inkscape:isstock="true"><path
         id="path3064"
         d="M 0,0 5,-5 -12.5,0 5,5 Z"
         style="fill:#000000;fill-opacity:1;fill-rule:evenodd;stroke:#000000;stroke-width:1pt;stroke-opacity:1"
         transform="matrix(0.8,0,0,0.8,10,0)"
         inkscape:connector-curvature="0" /></marker><marker
       inkscape:stockid="Arrow1Lend"
       orient="auto"
       refY="0"
       refX="0"
       id="Arrow1Lend"
       style="overflow:visible"
       inkscape:isstock="true"><path
         id="path847"
         d="M 0,0 5,-5 -12.5,0 5,5 Z"
         style="fill:#000000;fill-opacity:1;fill-rule:evenodd;stroke:#000000;stroke-width:1pt;stroke-opacity:1"
         transform="matrix(-0.8,0,0,-0.8,-10,0)"
         inkscape:connector-curvature="0" /></marker><marker
       inkscape:stockid="Arrow1Lstart"
       orient="auto"
       refY="0"
       refX="0"
       id="Arrow1Lstart"
       style="overflow:visible"
       inkscape:isstock="true"><path
         id="path844"
         d="M 0,0 5,-5 -12.5,0 5,5 Z"
         style="fill:#000000;fill-opacity:1;fill-rule:evenodd;stroke:#000000;stroke-width:1pt;stroke-opacity:1"
         transform="matrix(0.8,0,0,0.8,10,0)"
         inkscape:connector-curvature="0" /></marker><linearGradient
       spreadMethod="pad"
       gradientUnits="userSpaceOnUse"
       y2="593.79999"
       y1="3.6659999"
       x2="590.79999"
       x1="0.7414"
       id="gradientFill-1"
       gradientTransform="matrix(0.31849244,0,0,0.20785962,36.598826,38.503447)"><stop
         id="stop1123"
         stop-opacity="1"
         stop-color="rgb(203,206,208)"
         offset="0" /><stop
         id="stop1125"
         stop-opacity="1"
         stop-color="rgb(132,131,139)"
         offset="1" /></linearGradient><linearGradient
       spreadMethod="pad"
       gradientUnits="userSpaceOnUse"
       y2="553.40002"
       y1="151.3"
       x2="703.09998"
       x1="301.10001"
       id="gradientFill-2"
       gradientTransform="matrix(0.25799973,0,0,0.25655409,36.598826,38.503447)"><stop
         id="stop1128"
         stop-opacity="1"
         stop-color="rgb(39,109,195)"
         offset="0" /><stop
         id="stop1130"
         stop-opacity="1"
         stop-color="rgb(22,92,170)"
         offset="1" /></linearGradient></defs><g
     inkscape:label="Layer 1"
     inkscape:groupmode="layer"
     id="layer1"><path
       id="path1135"
       d="m 130.81733,161.92883 c -51.917914,0 -93.982364,-27.45891 -93.982364,-61.31897 0,-33.885464 42.06445,-61.344372 93.982364,-61.344372 51.89186,0 93.95788,27.458908 93.95788,61.344372 0,33.86006 -42.06602,61.31897 -93.95788,61.31897 z m 14.36083,-98.681885 c -39.43363,0 -71.413194,18.769091 -71.413194,41.935165 0,23.16607 31.979564,41.9377 71.413194,41.9377 39.4597,0 68.57231,-12.8531 68.57231,-41.9377 0,-29.084599 -29.11261,-41.935165 -68.57231,-41.935165 z"
       inkscape:connector-curvature="0"
       style="fill:url(#gradientFill-1);fill-rule:evenodd;stroke-width:0.50001;stroke-miterlimit:4;stroke-dasharray:none" /><path
       id="path1137"
       d="m 179.94649,134.26671 c 0,0 5.68178,1.67649 8.9918,3.30218 1.14679,0.55883 3.12759,1.70189 4.56107,3.17517 1.40741,1.44788 2.08505,2.92116 2.08505,2.92116 l 22.41436,36.83202 -36.22786,0.0254 -16.94109,-31.0151 c 0,0 -3.4664,-5.81692 -5.60359,-7.49341 -1.77229,-1.39708 -2.52813,-1.90511 -4.30043,-1.90511 -1.22497,0 -8.60086,0 -8.60086,0 v 40.38822 H 114.2672 V 77.342179 h 64.37613 c 0,0 29.32111,0.53343 29.32111,27.712921 0,27.17949 -28.01795,29.21161 -28.01795,29.21161 z M 166.00267,99.720808 h -19.41709 v 17.526962 h 19.41709 c 0,0 8.99181,-0.0254 8.99181,-8.91589 0,-9.068297 -8.99181,-8.611072 -8.99181,-8.611072 z"
       inkscape:connector-curvature="0"
       style="fill:url(#gradientFill-2);fill-rule:evenodd;stroke-width:0.50001;stroke-miterlimit:4;stroke-dasharray:none" /><path
       id="rect1"
       style="opacity:1;fill:none;stroke:#276dc3;stroke-width:10;stroke-linecap:round;stroke-linejoin:round;stroke-miterlimit:5;stroke-opacity:1;stroke-dasharray:none"
       d="M 30.501788,26.695016 H 239.11686 c 11.4753,0 20.71354,9.044937 20.71354,20.280127 V 173.00166 c 0,11.23518 -9.23824,20.28013 -20.71354,20.28013 H 114.25605 L 53.741127,252.77361 53.492775,193.28179 H 30.501788 c -11.475309,0 -20.7135513,-9.04495 -20.7135513,-20.28013 V 46.975143 c 0,-11.23519 9.2382423,-20.280127 20.7135513,-20.280127 z"
       sodipodi:nodetypes="ssssscccssss" /></g></svg>
